<svg viewBox="0 0 224.54 90.43" xmlns="http://www.w3.org/2000/svg" xmlns:xlink="http://www.w3.org/1999/xlink" overflow="hidden"><defs></defs><g id="Capa_2"><g id="Capa_1-2"><path d="M114.74 64.87C114.586 64.9072 114.428 64.9273 114.27 64.93L113.66 64.93C113.231 64.9774 112.807 64.7997 112.54 64.46 112.286 63.9778 112.175 63.4331 112.22 62.89L112.22 59.33 110.63 59.33 110.63 63.17C110.625 63.598 110.676 64.0248 110.78 64.44 110.862 64.8037 111.022 65.145 111.25 65.44 111.489 65.7259 111.795 65.949 112.14 66.09 112.583 66.2617 113.055 66.3432 113.53 66.33 114.069 66.3301 114.608 66.2867 115.14 66.2 115.63 66.12 116.02 66.04 116.33 65.96L116.33 59.33 114.74 59.33Z" fill="#003DA6"/><path d="M124.36 64.9C124.096 64.9485 123.828 64.972 123.56 64.97 122.979 65.0305 122.404 64.8116 122.01 64.38 121.687 63.9035 121.529 63.3346 121.56 62.76 121.523 62.174 121.693 61.5937 122.04 61.12 122.396 60.7135 122.921 60.4955 123.46 60.53 123.709 60.5308 123.957 60.5576 124.2 60.61 124.412 60.6571 124.62 60.724 124.82 60.81L125.16 59.51C124.575 59.2771 123.95 59.1583 123.32 59.16 122.837 59.153 122.357 59.2449 121.91 59.43 121.505 59.6067 121.14 59.8655 120.84 60.19 120.543 60.5251 120.315 60.916 120.17 61.34 120.007 61.7955 119.926 62.2762 119.93 62.76 119.925 63.2447 119.996 63.7272 120.14 64.19 120.393 65.0472 121.022 65.7427 121.85 66.08 122.337 66.2691 122.857 66.3609 123.38 66.35 123.746 66.349 124.111 66.3122 124.47 66.24 124.742 66.1979 125.008 66.1205 125.26 66.01L125 64.7C124.792 64.7833 124.578 64.8501 124.36 64.9Z" fill="#003DA6"/><path d="M61.58 59.56C61.3675 59.4554 61.1467 59.3685 60.92 59.3 60.6379 59.2155 60.3445 59.175 60.05 59.18 59.603 59.1722 59.1596 59.2609 58.75 59.44 58.3635 59.6006 58.0208 59.8508 57.75 60.17 57.4777 60.502 57.2768 60.8867 57.16 61.3 57.0315 61.7789 56.9776 62.2747 57 62.77 56.9908 63.2778 57.0755 63.783 57.25 64.26 57.3974 64.6813 57.6325 65.0665 57.94 65.39 58.2407 65.6972 58.6015 65.9389 59 66.1 59.4669 66.2735 59.962 66.3583 60.46 66.35 60.9625 66.3514 61.4642 66.3113 61.96 66.23 62.3647 66.1806 62.7657 66.1038 63.16 66L63.16 56 61.58 56.27ZM61.58 64.87C61.4352 64.9038 61.2881 64.9272 61.14 64.94 60.9235 64.9519 60.7065 64.9519 60.49 64.94 59.9663 64.968 59.4595 64.7497 59.12 64.35 58.7598 63.8783 58.5822 63.2923 58.62 62.7 58.5886 62.1417 58.7281 61.587 59.02 61.11 59.3056 60.7038 59.7851 60.4793 60.28 60.52 60.7419 60.5216 61.1935 60.6571 61.58 60.91Z" fill="#003DA6"/><path d="M67.94 56.34C67.6853 56.3356 67.4385 56.4286 67.25 56.6 67.0603 56.7912 66.9558 57.0507 66.96 57.32 66.9473 57.5878 67.0535 57.8476 67.25 58.03 67.4385 58.2014 67.6853 58.2944 67.94 58.29 68.1947 58.2944 68.4415 58.2014 68.63 58.03 68.8229 57.8458 68.9252 57.5863 68.91 57.32 68.9242 57.051 68.8222 56.7888 68.63 56.6 68.4415 56.4286 68.1947 56.3356 67.94 56.34Z" fill="#003DA6"/><rect x="67.16" y="59.33" width="1.58" height="6.85" fill="#003DA6"/><path d="M76.74 63C76.5466 62.8162 76.3277 62.6612 76.09 62.54 75.7641 62.386 75.4303 62.2491 75.09 62.13 74.86 62.05 74.67 61.97 74.51 61.9 74.3761 61.84 74.2487 61.7662 74.13 61.68 74.0435 61.6146 73.9748 61.5287 73.93 61.43 73.8871 61.336 73.8666 61.2333 73.87 61.13 73.8637 60.919 73.9809 60.7237 74.17 60.63 74.4158 60.5114 74.6874 60.4564 74.96 60.47 75.513 60.4526 76.063 60.5585 76.57 60.78L76.85 59.5C76.5838 59.4024 76.3093 59.3288 76.03 59.28 75.651 59.2073 75.2659 59.1705 74.88 59.17 74.2118 59.132 73.55 59.3186 73 59.7 72.5423 60.0557 72.2852 60.6109 72.31 61.19 72.3018 61.4708 72.353 61.7502 72.46 62.01 72.5545 62.2271 72.6943 62.4214 72.87 62.58 73.0582 62.7427 73.2666 62.8805 73.49 62.99 73.7466 63.1156 74.0104 63.2257 74.28 63.32 74.6318 63.4425 74.9676 63.607 75.28 63.81 75.4702 63.9333 75.5865 64.1433 75.59 64.37 75.6063 64.5858 75.4921 64.7904 75.3 64.89 75.0084 65.0083 74.694 65.0596 74.38 65.04 74.0026 65.0466 73.6259 65.0029 73.26 64.91 72.9738 64.8364 72.6931 64.7428 72.42 64.63L72.2 66C72.35 66.06 72.61 66.14 72.97 66.24 73.4483 66.3517 73.9389 66.4021 74.43 66.39 75.1544 66.4334 75.8753 66.2593 76.5 65.89 76.9856 65.5539 77.262 64.9898 77.23 64.4 77.2364 64.1317 77.1958 63.8643 77.11 63.61 77.0398 63.3788 76.9126 63.1691 76.74 63Z" fill="#003DA6"/><path d="M84.1 64.88C83.8517 64.9431 83.5962 64.9734 83.34 64.97 82.9998 65.0155 82.6601 64.8834 82.44 64.62 82.2385 64.2611 82.148 63.8504 82.18 63.44L82.18 60.65 84.62 60.65 84.62 59.33 82.18 59.33 82.18 57.26 80.6 57.52 80.6 63.45C80.5952 63.8598 80.6355 64.269 80.72 64.67 80.7829 64.9966 80.9198 65.3044 81.12 65.57 81.3221 65.8287 81.5922 66.026 81.9 66.14 82.294 66.2825 82.7111 66.3504 83.13 66.34 83.4675 66.3398 83.8036 66.2961 84.13 66.21 84.3757 66.1484 84.6164 66.0681 84.85 65.97L84.59 64.71C84.5 64.76 84.32 64.82 84.1 64.88Z" fill="#003DA6"/><path d="M91.57 59.26 91.16 59.2 90.79 59.2C90.2755 59.1934 89.762 59.2471 89.26 59.36 88.8721 59.4361 88.4909 59.5431 88.12 59.68L88.12 66.2 89.7 66.2 89.7 60.69C89.8338 60.6481 89.971 60.618 90.11 60.6 90.2946 60.5648 90.4821 60.5481 90.67 60.55 90.9417 60.5453 91.2131 60.5688 91.48 60.62 91.663 60.6543 91.8434 60.701 92.02 60.76L92.29 59.42C92.1887 59.386 92.0851 59.3592 91.98 59.34 91.8456 59.3028 91.7085 59.276 91.57 59.26Z" fill="#003DA6"/><rect x="95.37" y="59.33" width="1.59" height="6.85" fill="#003DA6"/><path d="M96.16 56.34C95.9018 56.333 95.651 56.4262 95.46 56.6 95.2678 56.7888 95.1658 57.051 95.18 57.32 95.1648 57.5863 95.2671 57.8458 95.46 58.03 95.651 58.2038 95.9019 58.297 96.16 58.29 96.4113 58.2918 96.6541 58.199 96.84 58.03 97.0366 57.8476 97.1427 57.5878 97.13 57.32 97.1342 57.0507 97.0297 56.7912 96.84 56.6 96.6541 56.431 96.4113 56.3382 96.16 56.34Z" fill="#003DA6"/><path d="M106.32 60.17C106.069 59.8518 105.742 59.601 105.37 59.44 104.963 59.2629 104.524 59.1743 104.08 59.18 103.782 59.1761 103.486 59.2166 103.2 59.3 102.967 59.3687 102.74 59.4557 102.52 59.56L102.52 56 100.94 56.27 100.94 66C101.327 66.113 101.721 66.1999 102.12 66.26 102.616 66.3413 103.118 66.3814 103.62 66.38 104.118 66.3902 104.614 66.3054 105.08 66.13 105.491 65.9715 105.863 65.7259 106.17 65.41 106.477 65.0844 106.715 64.7 106.87 64.28 107.036 63.8011 107.117 63.2969 107.11 62.79 107.114 62.2963 107.046 61.8046 106.91 61.33 106.793 60.9078 106.592 60.5134 106.32 60.17ZM105 64.38C104.656 64.7801 104.147 64.998 103.62 64.97 103.403 64.9817 103.187 64.9817 102.97 64.97 102.822 64.9563 102.675 64.9329 102.53 64.9L102.53 60.93C102.703 60.8145 102.892 60.7237 103.09 60.66 103.33 60.5872 103.579 60.5501 103.83 60.55 104.326 60.5051 104.807 60.7305 105.09 61.14 105.382 61.617 105.521 62.1717 105.49 62.73 105.525 63.3205 105.352 63.9046 105 64.38Z" fill="#003DA6"/><rect x="128.47" y="59.33" width="1.59" height="6.85" fill="#003DA6"/><path d="M129.26 56.34C129.002 56.333 128.751 56.4262 128.56 56.6 128.368 56.7888 128.266 57.051 128.28 57.32 128.265 57.5863 128.367 57.8458 128.56 58.03 128.751 58.2038 129.002 58.297 129.26 58.29 129.511 58.2918 129.754 58.199 129.94 58.03 130.137 57.8476 130.243 57.5878 130.23 57.32 130.234 57.0507 130.13 56.7912 129.94 56.6 129.754 56.431 129.511 56.3382 129.26 56.34Z" fill="#003DA6"/><path d="M139.32 60.14C139.04 59.8311 138.7 59.5827 138.32 59.41 137.898 59.2389 137.446 59.1539 136.99 59.16 136.534 59.1531 136.082 59.2381 135.66 59.41 135.28 59.5827 134.94 59.8311 134.66 60.14 134.361 60.4684 134.13 60.8523 133.98 61.27 133.651 62.2429 133.651 63.2971 133.98 64.27 134.13 64.6908 134.361 65.0781 134.66 65.41 134.938 65.7218 135.278 65.9707 135.66 66.14 136.52 66.487 137.48 66.487 138.34 66.14 138.72 65.9674 139.06 65.7189 139.34 65.41 139.636 65.0775 139.863 64.6902 140.01 64.27 140.332 63.2959 140.332 62.2441 140.01 61.27 139.857 60.8513 139.623 60.4672 139.32 60.14ZM138.17 64.38C137.655 65.0565 136.688 65.1872 136.012 64.6717 135.902 64.588 135.804 64.4899 135.72 64.38 135.133 63.3761 135.133 62.1339 135.72 61.13 136.244 60.4534 137.218 60.3302 137.895 60.8547 137.998 60.9345 138.09 61.027 138.17 61.13 138.757 62.1339 138.757 63.3761 138.17 64.38Z" fill="#003DA6"/><path d="M149 60.06C148.761 59.7693 148.451 59.5454 148.1 59.41 147.652 59.2452 147.177 59.1671 146.7 59.18 146.158 59.1764 145.616 59.2165 145.08 59.3 144.679 59.3591 144.281 59.4426 143.89 59.55L143.89 66.18 145.47 66.18 145.47 60.65 145.96 60.59C146.166 60.5754 146.374 60.5754 146.58 60.59 146.815 60.5807 147.05 60.6181 147.27 60.7 147.453 60.7661 147.611 60.8886 147.72 61.05 147.839 61.2422 147.917 61.4565 147.95 61.68 148.002 61.9905 148.026 62.3052 148.02 62.62L148.02 66.22 149.61 66.22 149.61 62.33C149.612 61.8994 149.565 61.47 149.47 61.05 149.392 60.6882 149.231 60.3493 149 60.06Z" fill="#003DA6"/><path d="M156.27 59.16C155.865 59.1563 155.464 59.2345 155.09 59.39 154.711 59.5414 154.37 59.7734 154.09 60.07 153.776 60.3938 153.531 60.7783 153.37 61.2 153.181 61.7083 153.089 62.2477 153.1 62.79 153.095 63.2714 153.166 63.7506 153.31 64.21 153.442 64.6241 153.661 65.0057 153.95 65.33 154.256 65.6592 154.632 65.9155 155.05 66.08 155.555 66.2704 156.091 66.362 156.63 66.35 156.86 66.3649 157.09 66.3649 157.32 66.35L157.96 66.25C158.136 66.2161 158.309 66.1727 158.48 66.12 158.604 66.0837 158.724 66.0369 158.84 65.98L158.63 64.69C158.386 64.7824 158.135 64.856 157.88 64.91 157.531 64.981 157.176 65.0145 156.82 65.01 156.282 65.0454 155.75 64.8856 155.32 64.56 154.963 64.2326 154.753 63.7744 154.74 63.29L159.26 63.29C159.26 63.2 159.26 63.1 159.26 62.99 159.26 62.88 159.26 62.78 159.26 62.7 159.331 61.7573 159.046 60.8221 158.46 60.08 157.903 59.4635 157.1 59.1265 156.27 59.16ZM154.73 62.08C154.76 61.8788 154.81 61.6811 154.88 61.49 154.949 61.3055 155.047 61.1333 155.17 60.98 155.447 60.6563 155.854 60.473 156.28 60.48 156.491 60.4736 156.7 60.5182 156.89 60.61 157.058 60.688 157.205 60.8045 157.32 60.95 157.445 61.0991 157.537 61.2729 157.59 61.46 157.651 61.6609 157.682 61.87 157.68 62.08Z" fill="#003DA6"/><path d="M167.29 63.57C167.215 63.3496 167.088 63.1506 166.92 62.99 166.727 62.8062 166.508 62.6512 166.27 62.53 165.944 62.376 165.61 62.2391 165.27 62.12 165.04 62.04 164.85 61.96 164.69 61.89 164.556 61.83 164.429 61.7562 164.31 61.67 164.224 61.6046 164.155 61.5187 164.11 61.42 164.067 61.326 164.047 61.2233 164.05 61.12 164.044 60.909 164.161 60.7137 164.35 60.62 164.596 60.5014 164.867 60.4464 165.14 60.46 165.693 60.4426 166.243 60.5485 166.75 60.77L167.04 59.49C166.77 59.394 166.492 59.3204 166.21 59.27 165.831 59.1973 165.446 59.1605 165.06 59.16 164.387 59.1226 163.721 59.3129 163.17 59.7 162.712 60.0557 162.455 60.6109 162.48 61.19 162.472 61.4708 162.523 61.7502 162.63 62.01 162.728 62.2249 162.867 62.4186 163.04 62.58 163.228 62.7427 163.437 62.8805 163.66 62.99 163.917 63.1156 164.18 63.2257 164.45 63.32 164.802 63.4425 165.138 63.607 165.45 63.81 165.644 63.9293 165.762 64.1419 165.76 64.37 165.776 64.5858 165.662 64.7904 165.47 64.89 165.178 65.0083 164.864 65.0596 164.55 65.04 164.173 65.0466 163.796 65.0029 163.43 64.91 163.144 64.8349 162.864 64.7413 162.59 64.63L162.38 66C162.636 66.0932 162.896 66.1733 163.16 66.24 163.635 66.3524 164.122 66.4028 164.61 66.39 165.337 66.4324 166.061 66.2584 166.69 65.89 167.17 65.5503 167.442 64.9875 167.41 64.4 167.421 64.1183 167.381 63.837 167.29 63.57Z" fill="#003DA6"/><path d="M49.94 36.06C49.8 33.96 49.62 31.94 49.43 30 49.24 28.06 49.03 26.3 48.8 24.74L44 24.74C43.59 25.49 43.11 26.41 42.58 27.51 42.05 28.61 41.49 29.81 40.9 31.09 40.31 32.37 39.72 33.68 39.15 35L37.55 38.78C37.04 37.6 36.55 36.34 35.94 35 35.33 33.66 34.8 32.35 34.22 31.07 33.64 29.79 33.08 28.59 32.54 27.49 32 26.39 31.54 25.49 31.13 24.72L26.05 24.72C25.82 26.28 25.61 28.04 25.42 29.98 25.23 31.92 25.06 33.98 24.91 36.04 24.76 38.1 24.63 40.25 24.5 42.36 24.37 44.47 24.27 46.46 24.18 48.36L29.35 48.36C29.4233 46.0667 29.5167 43.57 29.63 40.87 29.74 38.16 29.91 35.44 30.14 32.69L31.5 35.86C32 37 32.5 38.15 33 39.31 33.5 40.47 34 41.58 34.42 42.63L35.58 45.34 39.29 45.34 40.45 42.63C40.91 41.58 41.38 40.47 41.87 39.31 42.36 38.15 42.87 37 43.36 35.84 43.85 34.68 44.31 33.63 44.73 32.67 44.95 35.42 45.12 38.14 45.24 40.85 45.36 43.56 45.44 46.05 45.51 48.34L50.69 48.34C50.59 46.48 50.49 44.49 50.36 42.34 50.23 40.19 50.09 38.16 49.94 36.06Z" fill="#003DA6"/><path d="M59.43 38.19 68.86 38.19 68.86 33.83 59.43 33.83 59.43 29.2 70.05 29.2 70.05 24.74 54.12 24.74 54.12 48.34 70.84 48.34 70.84 43.88 59.43 43.88 59.43 38.19Z" fill="#003DA6"/><path d="M90 43.11C89.49 42.28 89 41.49 88.45 40.73 87.9 39.97 87.45 39.29 86.95 38.73 88.2523 38.2386 89.3917 37.3936 90.24 36.29 91.0405 35.1141 91.4403 33.7113 91.38 32.29 91.5476 29.9666 90.4704 27.7285 88.55 26.41 86.67 25.15 83.9567 24.52 80.41 24.52 79.41 24.52 78.33 24.57 77.09 24.66 75.8846 24.7458 74.6856 24.9061 73.5 25.14L73.5 48.34 78.81 48.34 78.81 39.72 81.4 39.72C81.85 40.27 82.31 40.87 82.76 41.54 83.21 42.21 83.68 42.92 84.15 43.67 84.62 44.42 85.07 45.19 85.51 45.99 85.95 46.79 86.4 47.57 86.83 48.34L92.77 48.34C92.36 47.48 91.92 46.6 91.44 45.7 90.96 44.8 90.47 43.94 90 43.11ZM84.6 34.75C83.253 35.3474 81.7798 35.605 80.31 35.5L78.81 35.5 78.81 29.1 79.68 29.03C79.99 29.03 80.33 29.03 80.68 29.03 82.0112 28.9552 83.3403 29.2094 84.55 29.77 85.4283 30.2651 85.9394 31.2249 85.86 32.23 85.9381 33.2483 85.435 34.2235 84.56 34.75Z" fill="#003DA6"/><path d="M110.48 43.23C110.071 43.405 109.65 43.5488 109.22 43.66 108.74 43.78 108.22 43.89 107.59 43.98 106.901 44.0765 106.206 44.1233 105.51 44.12 104.435 44.1507 103.367 43.9459 102.38 43.52 101.559 43.158 100.839 42.6021 100.28 41.9 99.7287 41.1794 99.3336 40.3518 99.12 39.47 98.8814 38.488 98.7639 37.4805 98.77 36.47 98.7414 35.2871 98.9243 34.1086 99.31 32.99 99.6226 32.1193 100.117 31.325 100.76 30.66 101.342 30.0681 102.055 29.6196 102.84 29.35 103.611 29.0798 104.423 28.9412 105.24 28.94 106.347 28.9267 107.45 29.0647 108.52 29.35 109.401 29.5893 110.253 29.9247 111.06 30.35L112.59 26C112.307 25.8221 112.013 25.6617 111.71 25.52 111.216 25.2817 110.704 25.0811 110.18 24.92 109.474 24.7086 108.756 24.5383 108.03 24.41 107.132 24.2553 106.221 24.1817 105.31 24.19 103.67 24.1731 102.041 24.4508 100.5 25.01 99.0698 25.5219 97.7693 26.3411 96.69 27.41 95.5898 28.5144 94.7316 29.8358 94.17 31.29 93.5291 32.9577 93.2167 34.7337 93.25 36.52 93.25 40.4533 94.25 43.4833 96.25 45.61 98.25 47.7367 101.167 48.8067 105 48.82 106.597 48.8404 108.19 48.6555 109.74 48.27 110.858 48.0007 111.933 47.5731 112.93 47L111.47 42.75Z" fill="#003DA6"/><path d="M133.23 27.32C132.162 26.2902 130.887 25.4993 129.49 25 128.024 24.4745 126.477 24.2104 124.92 24.22 123.392 24.2148 121.876 24.4788 120.44 25 119.044 25.5155 117.77 26.3158 116.7 27.35 115.586 28.449 114.711 29.7666 114.13 31.22 113.446 32.9126 113.106 34.7245 113.13 36.55 113.096 38.3689 113.408 40.1778 114.05 41.88 114.609 43.3266 115.468 44.6387 116.57 45.73 117.659 46.7459 118.95 47.5196 120.36 48 121.822 48.529 123.365 48.7964 124.92 48.79 126.504 48.7997 128.078 48.5324 129.57 48 130.969 47.5062 132.242 46.7107 133.3 45.67 134.387 44.5766 135.229 43.2641 135.77 41.82 136.4 40.1151 136.706 38.3073 136.67 36.49 136.709 34.6707 136.397 32.8609 135.75 31.16 135.187 29.7183 134.329 28.4103 133.23 27.32ZM130.76 39.65C130.511 40.5209 130.097 41.3357 129.54 42.05 129.006 42.7186 128.321 43.25 127.54 43.6 125.853 44.3327 123.937 44.3327 122.25 43.6 121.468 43.2524 120.782 42.7206 120.25 42.05 119.69 41.3363 119.272 40.5215 119.02 39.65 118.728 38.6328 118.586 37.5783 118.6 36.52 118.59 35.4652 118.731 34.4145 119.02 33.4 119.291 32.5244 119.729 31.7095 120.31 31 120.844 30.3266 121.529 29.7887 122.31 29.43 123.138 29.0404 124.045 28.8486 124.96 28.87 125.869 28.8553 126.77 29.0396 127.6 29.41 128.379 29.7633 129.064 30.2941 129.6 30.96 130.157 31.6816 130.571 32.503 130.82 33.38 131.12 34.4026 131.265 35.4644 131.25 36.53 131.245 37.5888 131.08 38.6407 130.76 39.65Z" fill="#003DA6"/><path d="M153.75 36.89C153.084 36.2564 152.321 35.7331 151.49 35.34 150.58 34.9 149.49 34.45 148.29 34 147.697 33.8 147.157 33.6 146.67 33.4 146.217 33.2291 145.782 33.0148 145.37 32.76 145.033 32.5526 144.741 32.2807 144.51 31.96 144.295 31.6383 144.186 31.2569 144.2 30.87 144.161 30.2191 144.479 29.5985 145.03 29.25 145.884 28.8337 146.833 28.6508 147.78 28.72 148.764 28.6997 149.746 28.8313 150.69 29.11 151.446 29.3477 152.178 29.6523 152.88 30.02L154.42 25.83C152.264 24.697 149.855 24.1325 147.42 24.19 146.199 24.1763 144.983 24.3414 143.81 24.68 142.817 24.9722 141.89 25.4545 141.08 26.1 140.336 26.6998 139.741 27.4629 139.34 28.33 138.913 29.2713 138.705 30.2968 138.73 31.33 138.7 32.2864 138.899 33.2361 139.31 34.1 139.677 34.8391 140.187 35.4984 140.81 36.04 141.431 36.5868 142.133 37.0353 142.89 37.37 143.66 37.72 144.43 38.03 145.2 38.31 146.531 38.6743 147.809 39.2122 149 39.91 149.668 40.321 150.08 41.0455 150.09 41.83 150.095 42.1709 150.038 42.5099 149.92 42.83 149.792 43.1412 149.577 43.4087 149.3 43.6 148.944 43.8395 148.548 44.0123 148.13 44.11 147.52 44.2464 146.895 44.3101 146.27 44.3 144.043 44.3629 141.837 43.846 139.87 42.8L138.34 47C138.66 47.18 139.05 47.37 139.52 47.58 140.063 47.8117 140.621 48.0055 141.19 48.16 141.924 48.3571 142.668 48.5107 143.42 48.62 144.354 48.7498 145.297 48.8133 146.24 48.81 149.347 48.81 151.68 48.2 153.24 46.98 154.791 45.7462 155.652 43.8395 155.55 41.86 155.572 40.8752 155.423 39.8939 155.11 38.96 154.81 38.1807 154.346 37.4748 153.75 36.89Z" fill="#003DA6"/><path d="M199.1 45.7C198.62 44.8 198.1 43.94 197.62 43.11 197.14 42.28 196.62 41.49 196.07 40.73 195.52 39.97 195.07 39.29 194.57 38.73 195.872 38.2386 197.012 37.3936 197.86 36.29 198.661 35.1141 199.06 33.7113 199 32.29 199.168 29.9666 198.09 27.7285 196.17 26.41 194.29 25.15 191.57 24.52 188.03 24.52 187.03 24.52 185.95 24.57 184.71 24.66 183.505 24.7458 182.306 24.9061 181.12 25.14L181.12 48.34 186.43 48.34 186.43 39.72 189.05 39.72C189.538 40.3021 189.996 40.9096 190.42 41.54 190.88 42.21 191.34 42.92 191.81 43.67 192.28 44.42 192.73 45.19 193.17 45.99 193.61 46.79 194.06 47.57 194.49 48.34L200.43 48.34C200 47.48 199.58 46.6 199.1 45.7ZM192.22 34.7C190.873 35.2974 189.4 35.555 187.93 35.45L186.43 35.45 186.43 29.1 187.3 29.03C187.61 29.03 187.95 29.03 188.3 29.03 189.628 28.9519 190.955 29.2062 192.16 29.77 193.044 30.2606 193.56 31.2222 193.48 32.23 193.562 33.239 193.076 34.2099 192.22 34.75Z" fill="#003DA6"/><rect x="171.98" y="24.55" width="5.31" height="5.24" fill="#003DA6"/><path d="M177.3 33.07 172 33.07 172 38.81C172 40.7167 171.6 42.05 170.8 42.81 169.958 43.623 168.82 44.0565 167.65 44.01 167.052 44.0186 166.456 43.9239 165.89 43.73 165.365 43.5555 164.896 43.2449 164.53 42.83 164.122 42.3553 163.819 41.7999 163.64 41.2 163.411 40.4074 163.303 39.5848 163.32 38.76L163.32 24.58 158 24.58 158 39.25C157.981 40.5385 158.171 41.8216 158.56 43.05 158.902 44.1703 159.497 45.1968 160.3 46.05 161.143 46.9127 162.168 47.5756 163.3 47.99 164.676 48.4791 166.13 48.713 167.59 48.68 169.072 48.715 170.549 48.4847 171.95 48 174.241 47.2269 176.024 45.4061 176.75 43.1 177.145 41.8656 177.341 40.5761 177.33 39.28L177.33 33.07Z" fill="#003DA6"/><rect x="0" y="0" width="224.54" height="90.43" fill="none"/></g></g></svg>